REM MD5 4cdedf9a54d22d2bee0a4a6e0451c6ef
FILE "Ayrton Senna Kart Duel 2 (Europe).bin" BINARY
  TRACK 01 MODE2/2352
    INDEX 01 00:00:00
  TRACK 02 AUDIO
    INDEX 00 11:28:07
    INDEX 01 11:30:07
  TRACK 03 AUDIO
    INDEX 00 13:30:13
    INDEX 01 13:32:13
  TRACK 04 AUDIO
    INDEX 00 15:32:15
    INDEX 01 15:34:15
  TRACK 05 AUDIO
    INDEX 00 17:34:18
    INDEX 01 17:36:18
  TRACK 06 AUDIO
    INDEX 00 19:37:20
    INDEX 01 19:39:20
REM LEADOUT 23:07:28
